# MagicaVoxel @ Ephtracy

# group
o 

# material
mtllib EnemyBullet.mtl
usemtl palette

# normals
vn -1 0 0
vn 1 0 0
vn 0 0 1
vn 0 0 -1
vn 0 -1 0
vn 0 1 0

# texcoords
vt 0.841797 0.5
vt 0.958984 0.5

# verts
v -0.1 0 0.1
v -0.1 0 0
v -0.1 0 -0.1
v -0.1 0 -0.2
v -0.1 0.1 0.1
v -0.1 0.1 0
v -0.1 0.1 -0.1
v -0.1 0.1 -0.2
v -0.1 0.2 0.1
v -0.1 0.2 0
v -0.1 0.2 -0.1
v -0.1 0.2 -0.2
v -0.1 0.3 0.1
v -0.1 0.3 0
v -0.1 0.3 -0.1
v -0.1 0.3 -0.2
v 0 0.1 0
v 0 0.1 -0.1
v 0 0.2 0
v 0 0.2 -0.1
v 0.1 0 0
v 0.1 0 -0.1
v 0.1 0.1 0.1
v 0.1 0.1 0
v 0.1 0.1 -0.1
v 0.1 0.1 -0.2
v 0.1 0.2 0.1
v 0.1 0.2 0
v 0.1 0.2 -0.1
v 0.1 0.2 -0.2
v 0.1 0.3 0
v 0.1 0.3 -0.1
v 0 0 0
v 0 0 -0.1
v 0 0.1 0.1
v 0 0.1 0
v 0 0.1 -0.1
v 0 0.1 -0.2
v 0 0.2 0.1
v 0 0.2 0
v 0 0.2 -0.1
v 0 0.2 -0.2
v 0 0.3 0
v 0 0.3 -0.1
v 0.1 0.1 0
v 0.1 0.1 -0.1
v 0.1 0.2 0
v 0.1 0.2 -0.1
v 0.2 0 0.1
v 0.2 0 0
v 0.2 0 -0.1
v 0.2 0 -0.2
v 0.2 0.1 0.1
v 0.2 0.1 0
v 0.2 0.1 -0.1
v 0.2 0.1 -0.2
v 0.2 0.2 0.1
v 0.2 0.2 0
v 0.2 0.2 -0.1
v 0.2 0.2 -0.2
v 0.2 0.3 0.1
v 0.2 0.3 0
v 0.2 0.3 -0.1
v 0.2 0.3 -0.2
v -0.1 0 0.1
v -0.1 0.1 0.1
v -0.1 0.2 0.1
v -0.1 0.3 0.1
v 0 0 0.1
v 0 0.1 0.1
v 0 0.2 0.1
v 0 0.3 0.1
v 0.1 0 0.1
v 0.1 0.1 0.1
v 0.1 0.2 0.1
v 0.1 0.3 0.1
v 0.2 0 0.1
v 0.2 0.1 0.1
v 0.2 0.2 0.1
v 0.2 0.3 0.1
v 0 0.1 0
v 0 0.2 0
v 0.1 0.1 0
v 0.1 0.2 0
v -0.1 0.1 -0.1
v -0.1 0.2 -0.1
v 0 0 -0.1
v 0 0.1 -0.1
v 0 0.2 -0.1
v 0 0.3 -0.1
v 0.1 0 -0.1
v 0.1 0.1 -0.1
v 0.1 0.2 -0.1
v 0.1 0.3 -0.1
v 0.2 0.1 -0.1
v 0.2 0.2 -0.1
v -0.1 0.1 0
v -0.1 0.2 0
v 0 0 0
v 0 0.1 0
v 0 0.2 0
v 0 0.3 0
v 0.1 0 0
v 0.1 0.1 0
v 0.1 0.2 0
v 0.1 0.3 0
v 0.2 0.1 0
v 0.2 0.2 0
v 0 0.1 -0.1
v 0 0.2 -0.1
v 0.1 0.1 -0.1
v 0.1 0.2 -0.1
v -0.1 0 -0.2
v -0.1 0.1 -0.2
v -0.1 0.2 -0.2
v -0.1 0.3 -0.2
v 0 0 -0.2
v 0 0.1 -0.2
v 0 0.2 -0.2
v 0 0.3 -0.2
v 0.1 0 -0.2
v 0.1 0.1 -0.2
v 0.1 0.2 -0.2
v 0.1 0.3 -0.2
v 0.2 0 -0.2
v 0.2 0.1 -0.2
v 0.2 0.2 -0.2
v 0.2 0.3 -0.2
v -0.1 0 0.1
v 0 0 0.1
v 0.1 0 0.1
v 0.2 0 0.1
v -0.1 0 0
v 0 0 0
v 0.1 0 0
v 0.2 0 0
v -0.1 0 -0.1
v 0 0 -0.1
v 0.1 0 -0.1
v 0.2 0 -0.1
v -0.1 0 -0.2
v 0 0 -0.2
v 0.1 0 -0.2
v 0.2 0 -0.2
v 0 0.1 0
v 0.1 0.1 0
v 0 0.1 -0.1
v 0.1 0.1 -0.1
v 0 0.2 0.1
v 0.1 0.2 0.1
v -0.1 0.2 0
v 0 0.2 0
v 0.1 0.2 0
v 0.2 0.2 0
v -0.1 0.2 -0.1
v 0 0.2 -0.1
v 0.1 0.2 -0.1
v 0.2 0.2 -0.1
v 0 0.2 -0.2
v 0.1 0.2 -0.2
v 0 0.1 0.1
v 0.1 0.1 0.1
v -0.1 0.1 0
v 0 0.1 0
v 0.1 0.1 0
v 0.2 0.1 0
v -0.1 0.1 -0.1
v 0 0.1 -0.1
v 0.1 0.1 -0.1
v 0.2 0.1 -0.1
v 0 0.1 -0.2
v 0.1 0.1 -0.2
v 0 0.2 0
v 0.1 0.2 0
v 0 0.2 -0.1
v 0.1 0.2 -0.1
v -0.1 0.3 0.1
v 0 0.3 0.1
v 0.1 0.3 0.1
v 0.2 0.3 0.1
v -0.1 0.3 0
v 0 0.3 0
v 0.1 0.3 0
v 0.2 0.3 0
v -0.1 0.3 -0.1
v 0 0.3 -0.1
v 0.1 0.3 -0.1
v 0.2 0.3 -0.1
v -0.1 0.3 -0.2
v 0 0.3 -0.2
v 0.1 0.3 -0.2
v 0.2 0.3 -0.2

# faces
f 5/1/1 2/1/1 1/1/1
f 6/2/1 3/2/1 2/2/1
f 6/1/1 2/1/1 5/1/1
f 7/1/1 4/1/1 3/1/1
f 7/2/1 3/2/1 6/2/1
f 8/1/1 4/1/1 7/1/1
f 9/2/1 6/2/1 5/2/1
f 10/2/1 6/2/1 9/2/1
f 11/2/1 8/2/1 7/2/1
f 12/2/1 8/2/1 11/2/1
f 13/1/1 10/1/1 9/1/1
f 14/2/1 11/2/1 10/2/1
f 14/1/1 10/1/1 13/1/1
f 15/1/1 12/1/1 11/1/1
f 15/2/1 11/2/1 14/2/1
f 16/1/1 12/1/1 15/1/1
f 19/1/1 18/1/1 17/1/1
f 20/1/1 18/1/1 19/1/1
f 24/2/1 22/2/1 21/2/1
f 25/2/1 22/2/1 24/2/1
f 27/2/1 24/2/1 23/2/1
f 28/2/1 24/2/1 27/2/1
f 29/2/1 26/2/1 25/2/1
f 30/2/1 26/2/1 29/2/1
f 31/2/1 29/2/1 28/2/1
f 32/2/1 29/2/1 31/2/1
f 33/2/2 34/2/2 36/2/2
f 36/2/2 34/2/2 37/2/2
f 35/2/2 36/2/2 39/2/2
f 39/2/2 36/2/2 40/2/2
f 37/2/2 38/2/2 41/2/2
f 41/2/2 38/2/2 42/2/2
f 40/2/2 41/2/2 43/2/2
f 43/2/2 41/2/2 44/2/2
f 45/1/2 46/1/2 47/1/2
f 47/1/2 46/1/2 48/1/2
f 49/1/2 50/1/2 53/1/2
f 50/2/2 51/2/2 54/2/2
f 53/1/2 50/1/2 54/1/2
f 51/1/2 52/1/2 55/1/2
f 54/2/2 51/2/2 55/2/2
f 55/1/2 52/1/2 56/1/2
f 53/2/2 54/2/2 57/2/2
f 57/2/2 54/2/2 58/2/2
f 55/2/2 56/2/2 59/2/2
f 59/2/2 56/2/2 60/2/2
f 57/1/2 58/1/2 61/1/2
f 58/2/2 59/2/2 62/2/2
f 61/1/2 58/1/2 62/1/2
f 59/1/2 60/1/2 63/1/2
f 62/2/2 59/2/2 63/2/2
f 63/1/2 60/1/2 64/1/2
f 69/1/3 66/1/3 65/1/3
f 70/2/3 67/2/3 66/2/3
f 70/1/3 66/1/3 69/1/3
f 71/1/3 68/1/3 67/1/3
f 71/2/3 67/2/3 70/2/3
f 72/1/3 68/1/3 71/1/3
f 73/2/3 70/2/3 69/2/3
f 74/2/3 70/2/3 73/2/3
f 75/2/3 72/2/3 71/2/3
f 76/2/3 72/2/3 75/2/3
f 77/1/3 74/1/3 73/1/3
f 78/2/3 75/2/3 74/2/3
f 78/1/3 74/1/3 77/1/3
f 79/1/3 76/1/3 75/1/3
f 79/2/3 75/2/3 78/2/3
f 80/1/3 76/1/3 79/1/3
f 83/1/3 82/1/3 81/1/3
f 84/1/3 82/1/3 83/1/3
f 88/2/3 86/2/3 85/2/3
f 89/2/3 86/2/3 88/2/3
f 91/2/3 88/2/3 87/2/3
f 92/2/3 88/2/3 91/2/3
f 93/2/3 90/2/3 89/2/3
f 94/2/3 90/2/3 93/2/3
f 95/2/3 93/2/3 92/2/3
f 96/2/3 93/2/3 95/2/3
f 97/2/4 98/2/4 100/2/4
f 100/2/4 98/2/4 101/2/4
f 99/2/4 100/2/4 103/2/4
f 103/2/4 100/2/4 104/2/4
f 101/2/4 102/2/4 105/2/4
f 105/2/4 102/2/4 106/2/4
f 104/2/4 105/2/4 107/2/4
f 107/2/4 105/2/4 108/2/4
f 109/1/4 110/1/4 111/1/4
f 111/1/4 110/1/4 112/1/4
f 113/1/4 114/1/4 117/1/4
f 114/2/4 115/2/4 118/2/4
f 117/1/4 114/1/4 118/1/4
f 115/1/4 116/1/4 119/1/4
f 118/2/4 115/2/4 119/2/4
f 119/1/4 116/1/4 120/1/4
f 117/2/4 118/2/4 121/2/4
f 121/2/4 118/2/4 122/2/4
f 119/2/4 120/2/4 123/2/4
f 123/2/4 120/2/4 124/2/4
f 121/1/4 122/1/4 125/1/4
f 122/2/4 123/2/4 126/2/4
f 125/1/4 122/1/4 126/1/4
f 123/1/4 124/1/4 127/1/4
f 126/2/4 123/2/4 127/2/4
f 127/1/4 124/1/4 128/1/4
f 133/1/5 130/1/5 129/1/5
f 134/2/5 131/2/5 130/2/5
f 134/1/5 130/1/5 133/1/5
f 135/1/5 132/1/5 131/1/5
f 135/2/5 131/2/5 134/2/5
f 136/1/5 132/1/5 135/1/5
f 137/2/5 134/2/5 133/2/5
f 138/2/5 134/2/5 137/2/5
f 139/2/5 136/2/5 135/2/5
f 140/2/5 136/2/5 139/2/5
f 141/1/5 138/1/5 137/1/5
f 142/2/5 139/2/5 138/2/5
f 142/1/5 138/1/5 141/1/5
f 143/1/5 140/1/5 139/1/5
f 143/2/5 139/2/5 142/2/5
f 144/1/5 140/1/5 143/1/5
f 147/1/5 146/1/5 145/1/5
f 148/1/5 146/1/5 147/1/5
f 152/2/5 150/2/5 149/2/5
f 153/2/5 150/2/5 152/2/5
f 155/2/5 152/2/5 151/2/5
f 156/2/5 152/2/5 155/2/5
f 157/2/5 154/2/5 153/2/5
f 158/2/5 154/2/5 157/2/5
f 159/2/5 157/2/5 156/2/5
f 160/2/5 157/2/5 159/2/5
f 161/2/6 162/2/6 164/2/6
f 164/2/6 162/2/6 165/2/6
f 163/2/6 164/2/6 167/2/6
f 167/2/6 164/2/6 168/2/6
f 165/2/6 166/2/6 169/2/6
f 169/2/6 166/2/6 170/2/6
f 168/2/6 169/2/6 171/2/6
f 171/2/6 169/2/6 172/2/6
f 173/1/6 174/1/6 175/1/6
f 175/1/6 174/1/6 176/1/6
f 177/1/6 178/1/6 181/1/6
f 178/2/6 179/2/6 182/2/6
f 181/1/6 178/1/6 182/1/6
f 179/1/6 180/1/6 183/1/6
f 182/2/6 179/2/6 183/2/6
f 183/1/6 180/1/6 184/1/6
f 181/2/6 182/2/6 185/2/6
f 185/2/6 182/2/6 186/2/6
f 183/2/6 184/2/6 187/2/6
f 187/2/6 184/2/6 188/2/6
f 185/1/6 186/1/6 189/1/6
f 186/2/6 187/2/6 190/2/6
f 189/1/6 186/1/6 190/1/6
f 187/1/6 188/1/6 191/1/6
f 190/2/6 187/2/6 191/2/6
f 191/1/6 188/1/6 192/1/6
